PathFileType	4	(X/Y/Z)	/Users/itak/Documents/Research/Walk-IL/dataset/trc/00456_00167.trc
DataRate	CameraRate	NumFrames	NumMarkers	Units	OrigDataRate	OrigDataStartFrame	OrigNumFrames
100.000000	100.000000	4	53	mm	100.000000	0	512
Frame#	Time	RPSI			LPSI			L3			STRN			T10			C7			CLAV			RBAK			LBAK			LSHO			LUPA			LAEL			LAOL			LWTS			LWPS			LFRA			LHPS			LHTS			RSHO			RUPA			RAEL			RAOL			RWTS			RWPS			RFRA			RIFD			RHTS			RHPS			RBHD			LFHD			RFHD			LBHD			LHIP			RHIP			RASI			LASI			LKNE			LTHI			LANK			LTIP			LTOE			LMT1			LMT5			LHEE			RKNE			RTHI			RANK			RTIP			RTOE			RMT1			RMT5			RHEE			LIFD			
		X1	Y1	Z1	X2	Y2	Z2	X3	Y3	Z3	X4	Y4	Z4	X5	Y5	Z5	X6	Y6	Z6	X7	Y7	Z7	X8	Y8	Z8	X9	Y9	Z9	X10	Y10	Z10	X11	Y11	Z11	X12	Y12	Z12	X13	Y13	Z13	X14	Y14	Z14	X15	Y15	Z15	X16	Y16	Z16	X17	Y17	Z17	X18	Y18	Z18	X19	Y19	Z19	X20	Y20	Z20	X21	Y21	Z21	X22	Y22	Z22	X23	Y23	Z23	X24	Y24	Z24	X25	Y25	Z25	X26	Y26	Z26	X27	Y27	Z27	X28	Y28	Z28	X29	Y29	Z29	X30	Y30	Z30	X31	Y31	Z31	X32	Y32	Z32	X33	Y33	Z33	X34	Y34	Z34	X35	Y35	Z35	X36	Y36	Z36	X37	Y37	Z37	X38	Y38	Z38	X39	Y39	Z39	X40	Y40	Z40	X41	Y41	Z41	X42	Y42	Z42	X43	Y43	Z43	X44	Y44	Z44	X45	Y45	Z45	X46	Y46	Z46	X47	Y47	Z47	X48	Y48	Z48	X49	Y49	Z49	X50	Y50	Z50	X51	Y51	Z51	X52	Y52	Z52	X53	Y53	Z53	

1	0	-1256.908081054688	967.0934448242188	-543.5635986328125	-1246.947143554688	964.7640991210938	-685.54931640625	-1234.91064453125	1063.451782226562	-604.1752319335938	-957.7581787109375	1257.8125	-608.1563720703125	-1248.853881835938	1188.177124023438	-611.9015502929688	-1175.2578125	1455.98095703125	-602.3138427734375	-993.1124267578125	1371.113037109375	-614.0385131835938	-1244.411499023438	1339.468994140625	-508.7691955566406	-1209.092041015625	1407.130249023438	-700.4940185546875	-1107.553955078125	1431.220336914062	-780.3175048828125	-1121.239501953125	1318.296997070312	-881.9303588867188	-1111.116333007812	1106.220092773438	-929.2586669921875	-1190.523559570312	1090.756591796875	-864.647216796875	-1036.16650390625	899.4623413085938	-898.0702514648438	-1084.808471679688	889.9512329101562	-955.1578979492188	-1092.900512695312	1018.731384277344	-944.5420532226562	-1078.809204101562	811.9714965820312	-962.216064453125	-1022.698669433594	813.49365234375	-916.5482177734375	-1113.589233398438	1429.551879882812	-441.2549133300781	-1138.036376953125	1370.3203125	-365.2449951171875	-1143.538330078125	1086.201538085938	-299.9366455078125	-1191.87158203125	1066.884033203125	-343.4455261230469	-1030.119384765625	885.8861083984375	-339.6072387695312	-1097.624877929688	868.4973754882812	-284.4205932617188	-1137.314331054688	1027.569213867188	-289.3508911132812	-1022.672180175781	729.8206787109375	-329.8208312988281	-1010.772583007812	789.3759155273438	-325.0509338378906	-1076.620727539062	782.9373168945312	-285.311279296875	-1066.582275390625	1652.018310546875	-515.0846557617188	-929.3963012695312	1646.422607421875	-670.7584838867188	-930.3502197265625	1645.626708984375	-539.5465698242188	-1080.84228515625	1660.076782226562	-691.7857666015625	-1102.943725585938	861.2847900390625	-792.73876953125	-1144.533081054688	865.4393920898438	-395.9669799804688	-1037.21142578125	909.9755859375	-452.9684143066406	-1010.931213378906	902.4185791015625	-708.3497314453125	-1062.21044921875	444.4338989257812	-750.8566284179688	-1049.12939453125	599.816162109375	-770.9382934570312	-1184.068115234375	38.53532028198242	-756.4931640625	-1085.52001953125	291.568359375	-765.6237182617188	-954.5615844726562	44.24629592895508	-673.5487670898438	-1029.5595703125	51.08700942993164	-649.0221557617188	-1028.043823242188	44.51344680786133	-763.2850341796875	-1230.075805664062	44.03524398803711	-692.8804931640625	-1077.324951171875	473.2454223632812	-423.2786560058594	-1087.582763671875	734.0687866210938	-385.0200805664062	-1152.911010742188	45.91942977905273	-411.8563537597656	-1081.764404296875	329.9720153808594	-412.1949768066406	-943.5265502929688	47.76419448852539	-479.37841796875	-1009.214050292969	54.20312881469727	-509.6307983398438	-1017.473815917969	49.28450393676758	-403.0807800292969	-1222.8642578125	40.47383880615234	-452.8683166503906	-1037.359375	730.8309326171875	-918.6903076171875	
2	0.01	-1256.298217773438	966.7047729492188	-543.3876953125	-1246.554321289062	964.6468505859375	-685.4417114257812	-1234.435913085938	1063.059204101562	-603.7588500976562	-957.5291748046875	1257.864990234375	-607.9500122070312	-1248.77294921875	1187.76953125	-611.3848266601562	-1175.56689453125	1455.700073242188	-601.8750610351562	-993.2755126953125	1371.058837890625	-613.8463745117188	-1244.518310546875	1339.086059570312	-508.2981262207031	-1209.464965820312	1406.779052734375	-700.0084228515625	-1108.0751953125	1431.077270507812	-779.9654541015625	-1121.7138671875	1318.34033203125	-881.7147827148438	-1111.08056640625	1106.301147460938	-929.429931640625	-1190.310546875	1090.531005859375	-864.69189453125	-1035.095703125	899.9268798828125	-898.5488891601562	-1083.779296875	890.1928100585938	-955.489501953125	-1092.432739257812	1018.900512695312	-944.7610473632812	-1077.380737304688	812.2247314453125	-962.6365356445312	-1021.068786621094	814.1779174804688	-916.9929809570312	-1113.712158203125	1429.2822265625	-440.8377075195312	-1138.131225585938	1370.048706054688	-364.9414978027344	-1143.84326171875	1085.669799804688	-300.2040405273438	-1192.155517578125	1066.481689453125	-343.7458190917969	-1030.617431640625	885.3668823242188	-340.3297119140625	-1098.116455078125	867.8653564453125	-285.2320861816406	-1137.689453125	1027.000854492188	-289.7433471679688	-1023.253540039062	729.2608032226562	-331.0432739257812	-1011.282958984375	788.7742309570312	-326.1219177246094	-1077.164672851562	782.276123046875	-286.3954162597656	-1066.539794921875	1651.878784179688	-514.8283081054688	-929.67138671875	1646.039184570312	-670.714111328125	-930.4442138671875	1645.262451171875	-539.5123291015625	-1081.015625	1659.930908203125	-691.5806274414062	-1102.643188476562	861.4622802734375	-793.0081176757812	-1144.021850585938	864.8235473632812	-396.1112060546875	-1036.588256835938	909.3589477539062	-453.1371459960938	-1010.590454101562	902.4107666015625	-708.6278076171875	-1062.491577148438	444.5059509277344	-750.933837890625	-1049.331909179688	599.8765258789062	-771.0843505859375	-1184.06494140625	38.5245475769043	-756.5028686523438	-1085.70556640625	291.5913391113281	-765.6424560546875	-954.6083984375	44.3121337890625	-673.5264282226562	-1029.615478515625	51.09148406982422	-648.9852294921875	-1028.109375	44.53494262695312	-763.2333374023438	-1230.114501953125	44.01867294311523	-692.8859252929688	-1078.353393554688	472.6141357421875	-423.3752136230469	-1087.487060546875	733.3923950195312	-385.1945495605469	-1153.012329101562	45.43230819702148	-411.9430541992188	-1082.600830078125	329.4932250976562	-412.2149963378906	-943.364990234375	47.62392044067383	-479.1945190429688	-1009.103820800781	54.14116668701172	-509.4651489257812	-1017.432739257812	49.07563018798828	-402.7312927246094	-1222.9130859375	39.79296875	-453.0960388183594	-1035.418579101562	731.3355102539062	-919.280517578125	
3	0.02	-1255.534790039062	966.2272338867188	-543.1383666992188	-1246.061401367188	964.52197265625	-685.2775268554688	-1233.853393554688	1062.542602539062	-603.1985473632812	-957.2622680664062	1257.910278320312	-607.6849975585938	-1248.63427734375	1187.24072265625	-610.7095336914062	-1175.941772460938	1455.339111328125	-601.2966918945312	-993.4649658203125	1370.984985351562	-613.5726318359375	-1244.625732421875	1338.594848632812	-507.6702270507812	-1209.9306640625	1406.336669921875	-699.36865234375	-1108.74462890625	1430.880493164062	-779.4973754882812	-1122.317504882812	1318.32177734375	-881.395263671875	-1111.02001953125	1106.359985351562	-929.5828247070312	-1190.03125	1090.198120117188	-864.6915893554688	-1033.723754882812	900.4953002929688	-899.0790405273438	-1082.487548828125	890.4573974609375	-955.8507690429688	-1091.841918945312	1019.073669433594	-944.9814453125	-1075.606567382812	812.5205078125	-963.0980224609375	-1018.984130859375	815.0096435546875	-917.50390625	-1113.844482421875	1428.9267578125	-440.2859802246094	-1138.216918945312	1369.680297851562	-364.5096130371094	-1144.163330078125	1084.9794921875	-300.4797973632812	-1192.462768554688	1065.966064453125	-344.0539245605469	-1031.21337890625	884.6687622070312	-341.2122192382812	-1098.7158203125	867.0427856445312	-286.1934814453125	-1138.096557617188	1026.267456054688	-290.18701171875	-1024.004272460938	728.5225219726562	-332.5405578613281	-1011.938110351562	787.9815063476562	-327.4193725585938	-1077.851684570312	781.4149169921875	-287.7042846679688	-1066.494384765625	1651.715454101562	-514.488037109375	-930.0057983398438	1645.578002929688	-670.6363525390625	-930.5335083007812	1644.831176757812	-539.448974609375	-1081.256103515625	1659.756591796875	-691.283447265625	-1102.244750976562	861.6885375976562	-793.3189697265625	-1143.368530273438	864.0714111328125	-396.3035583496094	-1035.77734375	908.5805053710938	-453.3055725097656	-1010.170532226562	902.403564453125	-708.946533203125	-1062.86376953125	444.576904296875	-751.027099609375	-1049.553100585938	599.9430541992188	-771.2540893554688	-1184.062622070312	38.51185607910156	-756.5145874023438	-1085.963989257812	291.6042785644531	-765.65625	-954.66552734375	44.3955192565918	-673.498291015625	-1029.687377929688	51.09762191772461	-648.9419555664062	-1028.180541992188	44.56643295288086	-763.1698608398438	-1230.162719726562	43.99421310424805	-692.892333984375	-1079.628784179688	471.8489685058594	-423.5137023925781	-1087.376708984375	732.5820922851562	-385.4129028320312	-1153.184448242188	44.85882949829102	-412.0254821777344	-1083.647338867188	328.900390625	-412.2835693359375	-943.2454223632812	47.49343490600586	-479.0232238769531	-1009.038696289062	54.0450325012207	-509.3097229003906	-1017.433776855469	48.87018203735352	-402.3768615722656	-1223.025268554688	38.9792366027832	-453.3576965332031	-1032.979858398438	731.921875	-919.96533203125	
4	0.03	-1254.65478515625	965.6953125	-542.8131713867188	-1245.491943359375	964.4075927734375	-685.0499267578125	-1233.195068359375	1061.920776367188	-602.5031127929688	-956.9757080078125	1257.941162109375	-607.3674926757812	-1248.427978515625	1186.612548828125	-609.8914184570312	-1176.358154296875	1454.916137695312	-600.58837890625	-993.6669921875	1370.893920898438	-613.2147827148438	-1244.717651367188	1338.01708984375	-506.8954772949219	-1210.467529296875	1405.826049804688	-698.5877685546875	-1109.53857421875	1430.633422851562	-778.9226684570312	-1123.025512695312	1318.2109375	-880.9603881835938	-1110.92822265625	1106.375	-929.6768188476562	-1189.689086914062	1089.749389648438	-864.6138916015625	-1032.1005859375	901.1343383789062	-899.6022338867188	-1080.990844726562	890.7164306640625	-956.1967163085938	-1091.1513671875	1019.226379394531	-945.1632690429688	-1073.565795898438	812.8394775390625	-963.5502319335938	-1016.514709472656	815.9405517578125	-918.0256958007812	-1113.968505859375	1428.49658203125	-439.6116943359375	-1138.27099609375	1369.220092773438	-363.9455261230469	-1144.448486328125	1084.154174804688	-300.7252807617188	-1192.752563476562	1065.359985351562	-344.3218383789062	-1031.87060546875	883.8023681640625	-342.2030944824219	-1099.385620117188	866.0574951171875	-287.234130859375	-1138.482788085938	1025.395141601562	-290.6383056640625	-1024.905151367188	727.6204223632812	-334.2295227050781	-1012.7177734375	787.0146484375	-328.8671875	-1078.652465820312	780.3793334960938	-289.1552734375	-1066.448486328125	1651.542724609375	-514.0678100585938	-930.3783569335938	1645.072143554688	-670.5164794921875	-930.6000366210938	1644.364501953125	-539.3479614257812	-1081.559448242188	1659.5712890625	-690.8868408203125	-1101.75634765625	861.9580078125	-793.6456909179688	-1142.599731445312	863.2357788085938	-396.53466796875	-1034.804931640625	907.685546875	-453.4472351074219	-1009.690673828125	902.4036254882812	-709.2705078125	-1063.321166992188	444.6369018554688	-751.1279296875	-1049.7666015625	600.0075073242188	-771.4284057617188	-1184.061889648438	38.49861526489258	-756.52783203125	-1086.290161132812	291.6021423339844	-765.6580200195312	-954.7308349609375	44.49387741088867	-673.4656982421875	-1029.771240234375	51.10592651367188	-648.89501953125	-1028.252075195312	44.6084098815918	-763.0977783203125	-1230.21826171875	43.96140670776367	-692.9000244140625	-1081.080444335938	471.0066528320312	-423.6987609863281	-1087.254516601562	731.696533203125	-385.6700744628906	-1153.426391601562	44.25197601318359	-412.0998229980469	-1084.842651367188	328.2371826171875	-412.4131774902344	-943.1928100585938	47.39186096191406	-478.8927001953125	-1009.038146972656	53.91014099121094	-509.1941528320312	-1017.486450195312	48.6986083984375	-402.0716857910156	-1223.204956054688	38.09720611572266	-453.63525390625	-1030.149780273438	732.54833984375	-920.6882934570312	
